Coordinates
version=1
nRows=33
nColumns=38
inDegrees=no

Units are S.I. units (second, meters, Newtons, ...)
If the header above contains a line with 'inDegrees', this indicates whether rotational values are in degrees (yes) or radians (no).

endheader
time	pelvis_tilt	pelvis_list	pelvis_rotation	pelvis_tx	pelvis_ty	pelvis_tz	hip_flexion_r	hip_adduction_r	hip_rotation_r	knee_angle_r	ankle_angle_r	subtalar_angle_r	mtp_angle_r	hip_flexion_l	hip_adduction_l	hip_rotation_l	knee_angle_l	ankle_angle_l	subtalar_angle_l	mtp_angle_l	lumbar_extension	lumbar_bending	lumbar_rotation	arm_flex_r	arm_add_r	arm_rot_r	elbow_flex_r	pro_sup_r	wrist_flex_r	wrist_dev_r	arm_flex_l	arm_add_l	arm_rot_l	elbow_flex_l	pro_sup_l	wrist_flex_l	wrist_dev_l
1	0.0209408	0.0599935	-0.0178532	0.806458	0.978274	-0.359873	-0.475448	-0.0503903	-0.0958716	-1.28254	-0.241881	-0.0715466	-0.00596628	0.612582	0.0677385	-0.00921532	-0.529412	0.183691	0.1	-0.0304246	-0.321329	-0.148523	0.320584	-0.10092	-0.440458	0.3288	2.23614	1.70584	0.0999996	0.0799179	-0.564366	-0.702287	-0.459473	2.36966	1.45996	0.041587	-0.0936917
1.00833	0.0367243	0.0581494	-0.00106969	0.806493	0.97526	-0.361395	-0.465583	-0.0516397	-0.112728	-1.40829	-0.231231	-0.0715466	-0.00596628	0.583741	0.0759951	0.00376161	-0.536676	0.168723	0.1	-0.0304246	-0.341609	-0.144337	0.290963	-0.129561	-0.436588	0.314661	2.19558	1.67516	0.0999996	0.0799179	-0.530675	-0.71557	-0.467672	2.38027	1.47425	0.041587	-0.0936917
1.01667	0.0517134	0.0594108	0.0168446	0.806282	0.971699	-0.363399	-0.452457	-0.0589673	-0.134441	-1.5329	-0.220214	-0.0715466	-0.00596628	0.559681	0.0893595	0.0189656	-0.56538	0.158423	0.1	-0.0304246	-0.361295	-0.141492	0.256742	-0.157179	-0.432171	0.298135	2.15109	1.64478	0.0999996	0.0799179	-0.493592	-0.727463	-0.474271	2.38961	1.48592	0.041587	-0.0936917
1.025	0.0650417	0.0635624	0.0354435	0.805744	0.967743	-0.365787	-0.43434	-0.0717102	-0.158158	-1.65566	-0.208258	-0.0715466	-0.00596628	0.540002	0.107328	0.0361633	-0.612204	0.155847	0.1	-0.0304246	-0.379675	-0.139967	0.218668	-0.183417	-0.427289	0.279331	2.10275	1.61796	0.0999996	0.0799179	-0.452549	-0.737647	-0.478543	2.39731	1.49477	0.041587	-0.0936917
1.03333	0.0760485	0.0701689	0.0542186	0.804813	0.963683	-0.368417	-0.409421	-0.0887073	-0.180902	-1.77579	-0.195189	-0.0715466	-0.00596628	0.523503	0.12891	0.0548934	-0.672255	0.163544	0.1	-0.0304246	-0.396228	-0.139645	0.177567	-0.207958	-0.421951	0.258392	2.05067	1.59723	0.0999996	0.0799179	-0.407154	-0.745701	-0.479805	2.40306	1.50139	0.041587	-0.0936917
1.04167	0.0843541	0.0786005	0.0726283	0.803463	0.959878	-0.371117	-0.376045	-0.108419	-0.199943	-1.89221	-0.181188	-0.0715466	-0.00596628	0.508283	0.152675	0.0745858	-0.739416	0.182857	0.1	-0.0304246	-0.410609	-0.140301	0.134303	-0.230558	-0.416156	0.23561	1.99516	1.58406	0.0999996	0.0799179	-0.357357	-0.751127	-0.477532	2.40668	1.50695	0.041587	-0.0936917
1.05	0.0898851	0.0880778	0.0901108	0.801721	0.956608	-0.37372	-0.332986	-0.129067	-0.213113	-2.00344	-0.166621	-0.0715466	-0.00596628	0.491948	0.176842	0.0947197	-0.806999	0.213534	0.1	-0.0304246	-0.422637	-0.141562	0.0897883	-0.251103	-0.409966	0.211458	1.9369	1.57878	0.0999996	0.0799179	-0.303568	-0.753396	-0.471435	2.40812	1.51286	0.041587	-0.0936917
1.05833	0.0928949	0.0976718	0.106101	0.799662	0.954022	-0.376091	-0.279701	-0.148795	-0.219016	-2.10755	-0.151841	-0.0715466	-0.00596628	0.471913	0.199426	0.114934	-0.868549	0.253765	0.1	-0.0304246	-0.432289	-0.142879	0.0449968	-0.269691	-0.403583	0.186531	1.87706	1.58068	0.0999996	0.0799179	-0.246706	-0.752001	-0.461507	2.40751	1.52038	0.041587	-0.0936917
1.06667	0.0939358	0.106332	0.120062	0.797395	0.952194	-0.378149	-0.21648	-0.165828	-0.217173	-2.20227	-0.137043	-0.0715466	-0.00596628	0.445751	0.2184	0.135044	-0.918606	0.300575	0.1	-0.0304246	-0.439657	-0.143511	0.000963205	-0.286691	-0.3974	0.161438	1.81745	1.58819	0.0999996	0.0799179	-0.188164	-0.746528	-0.448026	2.4052	1.53041	0.041587	-0.0936917
1.075	0.0937684	0.112957	0.131544	0.795071	0.951194	-0.379852	-0.144467	-0.178645	-0.208069	-2.28511	-0.122232	-0.0715466	-0.00596628	0.411518	0.231871	0.154948	-0.953217	0.350343	0.1	-0.0304246	-0.444916	-0.142556	-0.0412805	-0.302734	-0.391997	0.136683	1.7604	1.59915	0.0999996	0.0799179	-0.129699	-0.736735	-0.431525	2.40168	1.54331	0.041587	-0.0936917
1.08333	0.0932171	0.116502	0.140258	0.792864	0.951085	-0.381185	-0.0655286	-0.186131	-0.193092	-2.35371	-0.107288	-0.0715466	-0.00596628	0.368001	0.238248	0.174483	-0.970134	0.399243	0.1	-0.0304246	-0.448264	-0.139048	-0.080825	-0.318641	-0.38809	0.112599	1.70857	1.61096	0.0999996	0.0799179	-0.0732665	-0.722638	-0.412725	2.3976	1.55878	0.041587	-0.0936917
1.09167	0.0929849	0.116098	0.146152	0.790966	0.951888	-0.382176	0.0180253	-0.187709	-0.174364	-2.40604	-0.0920943	-0.0715466	-0.00596628	0.314875	0.236398	0.193286	-0.968715	0.443497	0.1	-0.0304246	-0.449849	-0.132093	-0.117025	-0.335292	-0.386426	0.0893243	1.66457	1.62087	0.0999996	0.0799179	-0.0208367	-0.704559	-0.392444	2.39363	1.57598	0.041587	-0.0936917
1.1	0.0934834	0.111179	0.14945	0.78956	0.953552	-0.382897	0.103786	-0.183394	-0.154438	-2.44067	-0.0766302	-0.0715466	-0.00596628	0.25275	0.225751	0.210729	-0.94965	0.479505	0.1	-0.0304246	-0.449682	-0.120983	-0.1496	-0.353488	-0.387684	0.0668316	1.63055	1.62636	0.0999996	0.0799179	0.0257936	-0.68313	-0.371459	2.39039	1.59383	0.041587	-0.0936917
1.10833	0.094723	0.101521	0.150621	0.788795	0.955963	-0.383456	0.189559	-0.173774	-0.135934	-2.45687	-0.0610075	-0.0715466	-0.00596628	0.183093	0.206362	0.225904	-0.914619	0.503927	0.1	-0.0304246	-0.447598	-0.105322	-0.178655	-0.37384	-0.392376	0.0449729	1.60784	1.6256	0.0999996	0.0799179	0.0651663	-0.659243	-0.350364	2.3884	1.61133	0.041587	-0.0936917
1.11667	0.0963392	0.0872681	0.150287	0.788762	0.95898	-0.383953	0.273546	-0.159896	-0.121153	-2.45466	-0.0454236	-0.0715466	-0.00596628	0.108012	0.178893	0.237663	-0.865977	0.513818	0.1	-0.0304246	-0.443293	-0.0850856	-0.204589	-0.396712	-0.400778	0.02351	1.59678	1.6177	0.0999996	0.0799179	0.0963032	-0.633958	-0.329413	2.38794	1.62777	0.041587	-0.0936917
1.125	0.0977333	0.06894	0.149091	0.789473	0.96245	-0.384454	0.354366	-0.143115	-0.111779	-2.43473	-0.0300757	-0.0715466	-0.00596628	0.0299734	0.14456	0.244717	-0.806539	0.506805	0.1	-0.0304246	-0.436451	-0.0606439	-0.227958	-0.422203	-0.412883	0.00213908	1.59666	1.6029	0.0999996	0.0799179	0.118791	-0.608406	-0.308448	2.38908	1.64275	0.041587	-0.0936917
1.13333	0.098266	0.0473987	0.147561	0.790872	0.966228	-0.384982	0.430959	-0.124909	-0.1087	-2.39826	-0.0150784	-0.0715466	-0.00596628	-0.0484875	0.105036	0.245771	-0.739461	0.481334	0.1	-0.0304246	-0.426904	-0.0327541	-0.249311	-0.450177	-0.428383	-0.0195009	1.60596	1.58239	0.0999996	0.0799179	0.132805	-0.583704	-0.286902	2.39167	1.65611	0.041587	-0.0936917
1.14167	0.0974264	0.0237761	0.146006	0.792842	0.970183	-0.385533	0.502448	-0.106706	-0.111965	-2.34669	-0.000418705	-0.0715466	-0.00596628	-0.125001	0.0623446	0.239712	-0.668204	0.436938	0.1	-0.0304246	-0.414781	-0.00251424	-0.269062	-0.480284	-0.446677	-0.0418124	1.62255	1.55815	0.0999996	0.0799179	0.139055	-0.560889	-0.263924	2.39537	1.66773	0.041587	-0.0936917
1.15	0.094978	-0.00062532	0.144475	0.795214	0.974198	-0.386076	0.568032	-0.0897252	-0.120873	-2.28156	0.0140433	-0.0715466	-0.00596628	-0.197492	0.0187316	0.225841	-0.59651	0.374485	0.1	-0.0304246	-0.400544	0.0287229	-0.28742	-0.511989	-0.466936	-0.065181	1.64409	1.53247	0.0999996	0.0799179	0.138648	-0.540858	-0.238588	2.39971	1.67757	0.041587	-0.0936917
1.15833	0.0909384	-0.024423	0.142764	0.797784	0.978179	-0.386571	0.626938	-0.0748413	-0.134151	-2.20429	0.0285377	-0.0715466	-0.00596628	-0.264242	-0.023493	0.204128	-0.528342	0.296324	0.1	-0.0304246	-0.38496	0.0594946	-0.304378	-0.544578	-0.488194	-0.0898853	1.66824	1.50758	0.0999996	0.0799179	0.132891	-0.52432	-0.21013	2.4042	1.68561	0.041587	-0.0936917
1.16667	0.0855241	-0.0463156	0.140477	0.800347	0.982057	-0.386979	0.678427	-0.0624984	-0.150164	-2.11607	0.0433244	-0.0715466	-0.00596628	-0.323896	-0.062095	0.175438	-0.467722	0.20628	0.1	-0.0304246	-0.368958	0.0883563	-0.31976	-0.577177	-0.509478	-0.115998	1.69295	1.48535	0.0999996	0.0799179	0.123069	-0.511741	-0.178168	2.40841	1.69183	0.041587	-0.0936917
1.175	0.0790652	-0.0652066	0.137119	0.802734	0.985775	-0.387277	0.721825	-0.0526688	-0.167119	-2.01782	0.0586104	-0.0715466	-0.00596628	-0.375474	-0.0950555	0.141671	-0.418465	0.109411	0.1	-0.0304246	-0.353477	0.114016	-0.333309	-0.608784	-0.529931	-0.14331	1.71653	1.46699	0.0999996	0.0799179	0.110248	-0.503301	-0.142829	2.41199	1.69632	0.041587	-0.0936917
1.18333	0.0719195	-0.0802893	0.132214	0.804829	0.989285	-0.387462	0.756568	-0.0448935	-0.183239	-1.91021	0.0744422	-0.0715466	-0.00596628	-0.418352	-0.120688	0.105738	-0.383897	0.0115632	0.1	-0.0304246	-0.339313	0.135445	-0.344779	-0.638331	-0.548903	-0.171313	1.73778	1.45304	0.0999996	0.0799179	0.0951379	-0.498867	-0.104777	2.41475	1.69925	0.041587	-0.0936917
1.19167	0.0644149	-0.0910761	0.12541	0.806568	0.992532	-0.387554	0.782247	-0.038405	-0.196897	-1.79377	0.0905837	-0.0715466	-0.00596628	-0.45224	-0.137735	0.0712969	-0.366624	-0.0812224	0.1	-0.0304246	-0.327033	0.151958	-0.354029	-0.664765	-0.565993	-0.199261	1.75592	1.44339	0.0999996	0.0799179	0.0780463	-0.497995	-0.0651338	2.41658	1.70091	0.041587	-0.0936917
1.2	0.0568353	-0.0974176	0.116572	0.807935	0.99547	-0.387581	0.798623	-0.0323207	-0.206736	-1.66913	0.106423	-0.0715466	-0.00596628	-0.477147	-0.14543	0.0422386	-0.368385	-0.163389	0.1	-0.0304246	-0.316967	0.163234	-0.361069	-0.687141	-0.581035	-0.226286	1.77059	1.43752	0.0999996	0.0799179	0.0589184	-0.499966	-0.0253218	2.41743	1.70163	0.041587	-0.0936917
1.20833	0.0494797	-0.0994739	0.105805	0.808955	0.998057	-0.387575	0.805641	-0.025859	-0.211765	-1.53719	0.120968	-0.0715466	-0.00596628	-0.493374	-0.143559	0.0219633	-0.38998	-0.230525	0.1	-0.0304246	-0.309263	0.16931	-0.366056	-0.704714	-0.594045	-0.251546	1.78177	1.43463	0.0999996	0.0799179	0.0374563	-0.503867	0.0131427	2.41723	1.70176	0.041587	-0.0936917
1.21667	0.0427107	-0.0976491	0.0934289	0.809687	1.00025	-0.387557	0.803436	-0.0185207	-0.211444	-1.39935	0.132968	-0.0715466	-0.00596628	-0.501509	-0.132499	0.0126215	-0.431268	-0.279895	0.1	-0.0304246	-0.303976	0.170537	-0.369236	-0.71701	-0.605149	-0.274361	1.7897	1.43391	0.0999996	0.0799179	0.0132774	-0.508681	0.0488514	2.41582	1.70152	0.041587	-0.0936917
1.225	0.0369805	-0.0925221	0.079894	0.810193	1.00199	-0.387526	0.792378	-0.0101901	-0.205722	-1.25775	0.141186	-0.0715466	-0.00596628	-0.502428	-0.113244	0.0145171	-0.491214	-0.310771	0.1	-0.0304246	-0.301146	0.167506	-0.370854	-0.723878	-0.614517	-0.294319	1.79485	1.43467	0.0999996	0.0799179	-0.0139221	-0.513402	0.0806817	2.41295	1.70094	0.041587	-0.0936917
1.23333	0.0328079	-0.0847733	0.0656926	0.810531	1.00321	-0.387448	0.773135	-0.00113006	-0.195007	-1.11536	0.144694	-0.0715466	-0.00596628	-0.497251	-0.087383	0.025913	-0.567996	-0.324411	0.1	-0.0304246	-0.30083	0.160964	-0.371074	-0.725501	-0.622317	-0.311316	1.79786	1.4364	0.0999996	0.0799179	-0.0442448	-0.517138	0.107897	2.40824	1.69982	0.041587	-0.0936917
1.24167	0.0307147	-0.0751209	0.0512789	0.810755	1.00386	-0.387269	0.746751	0.00812494	-0.180066	-0.975958	0.143113	-0.0715466	-0.00596628	-0.487262	-0.0570374	0.0433189	-0.659165	-0.323682	0.1	-0.0304246	-0.303077	0.151721	-0.369944	-0.722349	-0.628693	-0.325534	1.79943	1.43879	0.0999996	0.0799179	-0.0775336	-0.519193	0.130159	2.40123	1.69781	0.041587	-0.0936917
1.25	0.0311116	-0.0643117	0.0370331	0.810905	1.00393	-0.386937	0.714671	0.0169462	-0.161864	-0.843943	0.136707	-0.0715466	-0.00596628	-0.473773	-0.0247201	0.062214	-0.761883	-0.312385	0.1	-0.0304246	-0.307897	0.140578	-0.367388	-0.715084	-0.633768	-0.33736	1.80031	1.44167	0.0999996	0.0799179	-0.113376	-0.519125	0.147477	2.39145	1.69452	0.041587	-0.0936917
1.25833	0.0342571	-0.0530393	0.0232279	0.811011	1.00339	-0.386412	0.678688	0.0248256	-0.141414	-0.724004	0.126289	-0.0715466	-0.00596628	-0.457969	0.0068392	0.0779905	-0.873192	-0.294468	0.1	-0.0304246	-0.315199	0.128336	-0.363245	-0.704427	-0.637655	-0.347276	1.80119	1.44488	0.0999996	0.0799179	-0.151161	-0.516759	0.160098	2.37844	1.68968	0.041587	-0.0936917
1.26667	0.0401919	-0.0419875	0.0100542	0.811084	1.00223	-0.385671	0.64081	0.0315477	-0.119651	-0.620657	0.112984	-0.0715466	-0.00596628	-0.440783	0.0349464	0.0868367	-0.990275	-0.273328	0.1	-0.0304246	-0.324783	0.115788	-0.357304	-0.69102	-0.640464	-0.355747	1.80261	1.44828	0.0999996	0.0799179	-0.190157	-0.512163	0.168392	2.36184	1.68321	0.041587	-0.0936917
